<svg xmlns="http://www.w3.org/2000/svg" width="1200" height="750" viewBox="0 0 1200 750" role="img" aria-label="다른 로또 도구 유형과 로또 모든것 비교표" xmlns:c2pa="http://c2pa.org/manifest"><metadata><c2pa:manifest>AAAWgmp1bWIAAAAeanVtZGMycGEAEQAQgAAAqgA4m3EDYzJwYQAAABZcanVtYgAAAEdqdW1kYzJtYQARABCAAACqADibcQN1cm46YzJwYTo5YTNhYmZjOS00MDdlLTQ2ODctYTk3My04NDI4YTE0MTg4MTMAAAADl2p1bWIAAAApanVtZGMyYXMAEQAQgAAAqgA4m3EDYzJwYS5hc3NlcnRpb25zAAAAALxqdW1iAAAARGp1bWRjYm9yABEAEIAAAKoAOJtxE2MycGEuaW5ncmVkaWVudC52MwAAAAAYYzJzaL9OnRrV3f4GbnzaxW7gcwoAAABwY2JvcqNpZGM6Zm9ybWF0bWltYWdlL3N2Zyt4bWxqaW5zdGFuY2VJRHgseG1wOmlpZDpjOTMzYmRiZi05OGI0LTRlMDAtOTRlYi03MzMyODIyNzdlOWNscmVsYXRpb25zaGlwaHBhcmVudE9mAAAB4mp1bWIAAABBanVtZGNib3IAEQAQgAAAqgA4m3ETYzJwYS5hY3Rpb25zLnYyAAAAABhjMnNozBnaqaHtUW1VUkX/8djdkwAAAZljYm9yomdhY3Rpb25zgqJmYWN0aW9ua2MycGEub3BlbmVkanBhcmFtZXRlcnOha2luZ3JlZGllbnRzgaJjdXJseC1zZWxmI2p1bWJmPWMycGEuYXNzZXJ0aW9ucy9jMnBhLmluZ3JlZGllbnQudjNkaGFzaFgg5lSfZ4mfZae3PCJNZjxUaaxuk94T/iWtFFXBYnGH5/akZmFjdGlvbngdY29tLmFudGhyb3BpYy5jbGF1ZGUucHJvdmlkZWRqcGFyYW1ldGVyc6F4H2NvbS5hbnRocm9waWMub3JpZ2luLWNvbmZpZGVuY2VndW5rbm93bmtkZXNjcmlwdGlvbnhmQ2xhdWRlIHByb3ZpZGVkIHRoaXMgZmlsZSBhdCB0aGUgcmVxdWVzdCBvZiBhIHVzZXIgYW5kIG1heSBoYXZlIGNyZWF0ZWQgb3IgbW9kaWZpZWQgdGhlIGZpbGUgY29udGVudHMubXNvZnR3YXJlQWdlbnShZG5hbWVmQ2xhdWRlcmFsbEFjdGlvbnNJbmNsdWRlZPUAAADIanVtYgAAAEBqdW1kY2JvcgARABCAAACqADibcRNjMnBhLmhhc2guZGF0YQAAAAAYYzJzaAWuaIMb+K/KBZ8Qx8Wpb/sAAACAY2JvcqVjYWxnZnNoYTI1NmNwYWRNAAAAAAAAAAAAAAAAAGRoYXNoWCB4eA8Ofu85i2IFOL2T98YzaLVXAVvlpY8gRCcXwKHuPGRuYW1lbmp1bWJmIG1hbmlmZXN0amV4Y2x1c2lvbnOBomVzdGFydBjqZmxlbmd0aBkeBAAAAj5qdW1iAAAAJ2p1bWRjMmNsABEAEIAAAKoAOJtxA2MycGEuY2xhaW0udjIAAAACD2Nib3KlY2FsZ2ZzaGEyNTZpc2lnbmF0dXJleE1zZWxmI2p1bWJmPS9jMnBhL3VybjpjMnBhOjlhM2FiZmM5LTQwN2UtNDY4Ny1hOTczLTg0MjhhMTQxODgxMy9jMnBhLnNpZ25hdHVyZWppbnN0YW5jZUlEeCx4bXA6aWlkOjhhYWY3NDc1LTgzYmMtNDY1Yi04MjI3LTU2ZTdiMGVjMTVjMXJjcmVhdGVkX2Fzc2VydGlvbnODomN1cmx4LXNlbGYjanVtYmY9YzJwYS5hc3NlcnRpb25zL2MycGEuaW5ncmVkaWVudC52M2RoYXNoWCDmVJ9niZ9lp7c8Ik1mPFRprG6T3hP+Ja0UVcFicYfn9qJjdXJseCpzZWxmI2p1bWJmPWMycGEuYXNzZXJ0aW9ucy9jMnBhLmFjdGlvbnMudjJkaGFzaFgg9HhYY9TsdMcRYBt1d5AEVqrPPZsMPJSQCE3v65WilZWiY3VybHgpc2VsZiNqdW1iZj1jMnBhLmFzc2VydGlvbnMvYzJwYS5oYXNoLmRhdGFkaGFzaFggew5EZPVZa2m1DIlTnWPTDuwQ8CqOAaiLsqFrmrLYJKV0Y2xhaW1fZ2VuZXJhdG9yX2luZm+jZG5hbWVvQW50aHJvcGljIEZpbGVzZ3ZlcnNpb25lMS4wLjBrc3BlY1ZlcnNpb25lMi40LjAAABA4anVtYgAAAChqdW1kYzJjcwARABCAAACqADibcQNjMnBhLnNpZ25hdHVyZQAAABAIY2JvctKEWQISogEmGCFZAgowggIGMIIBjaADAgECAhRA5aAK7sI50L64g/oGQgU9Z1UTADAKBggqhkjOPQQDAzBJMRcwFQYDVQQKEw5BbnRocm9waWMsIFBCQzEuMCwGA1UEAxMlQW50aHJvcGljIENvbnRlbnQgQ3JlZGVudGlhbHMgUm9vdCBDQTAeFw0yNjA4MDcxODQzNTZaFw0yODA4MDYxOTQzNTZaMEQxFzAVBgNVBAoTDkFudGhyb3BpYywgUEJDMSkwJwYDVQQDEyBBbnRocm9waWMgQ2xhdWRlIENvbnRlbnQgU2lnbmluZzBZMBMGByqGSM49AgEGCCqGSM49AwEHA0IABJh6CmvLUBgFFNU0vUKlOVtE6djd17L5SuwX0LemFisBM3dkd/3cyjxFA3Qo5S46fX0/ihY0VZ7mfb9KF703t5OjWDBWMA4GA1UdDwEB/wQEAwIHgDAVBgNVHSUEDjAMBgorBgEEAYPoXgIBMAwGA1UdEwEB/wQCMAAwHwYDVR0jBBgwFoAUzlHiBIFOZFsj+OPEz5o+nMHXXMIwCgYIKoZIzj0EAwMDZwAwZAIwMXMdFJ4BetLLVY7ORuE9noqbbAZOZn/aArXyTwFAZfKrPzxF2vPoJNf1+UCdg1XGAjBwX1zd9WGqYkqmL5SFqw1QySjr1zJfpJM9+1rdDwSPLMOPOjKuiXjoU/pUUeG9RwmhY3BhZFkNngAAAAAAAAAAAAAAAAAAAAAAAAAAAAAAAAAAAAAAAAAAAAAAAAAAAAAAAAAAAAAAAAAAAAAAAAAAAAAAAAAAAAAAAAAAAAAAAAAAAAAAAAAAAAAAAAAAAAAAAAAAAAAAAAAAAAAAAAAAAAAAAAAAAAAAAAAAAAAAAAAAAAAAAAAAAAAAAAAAAAAAAAAAAAAAAAAAAAAAAAAAAAAAAAAAAAAAAAAAAAAAAAAAAAAAAAAAAAAAAAAAAAAAAAAAAAAAAAAAAAAAAAAAAAAAAAAAAAAAAAAAAAAAAAAAAAAAAAAAAAAAAAAAAAAAAAAAAAAAAAAAAAAAAAAAAAAAAAAAAAAAAAAAAAAAAAAAAAAAAAAAAAAAAAAAAAAAAAAAAAAAAAAAAAAAAAAAAAAAAAAAAAAAAAAAAAAAAAAAAAAAAAAAAAAAAAAAAAAAAAAAAAAAAAAAAAAAAAAAAAAAAAAAAAAAAAAAAAAAAAAAAAAAAAAAAAAAAAAAAAAAAAAAAAAAAAAAAAAAAAAAAAAAAAAAAAAAAAAAAAAAAAAAAAAAAAAAAAAAAAAAAAAAAAAAAAAAAAAAAAAAAAAAAAAAAAAAAAAAAAAAAAAAAAAAAAAAAAAAAAAAAAAAAAAAAAAAAAAAAAAAAAAAAAAAAAAAAAAAAAAAAAAAAAAAAAAAAAAAAAAAAAAAAAAAAAAAAAAAAAAAAAAAAAAAAAAAAAAAAAAAAAAAAAAAAAAAAAAAAAAAAAAAAAAAAAAAAAAAAAAAAAAAAAAAAAAAAAAAAAAAAAAAAAAAAAAAAAAAAAAAAAAAAAAAAAAAAAAAAAAAAAAAAAAAAAAAAAAAAAAAAAAAAAAAAAAAAAAAAAAAAAAAAAAAAAAAAAAAAAAAAAAAAAAAAAAAAAAAAAAAAAAAAAAAAAAAAAAAAAAAAAAAAAAAAAAAAAAAAAAAAAAAAAAAAAAAAAAAAAAAAAAAAAAAAAAAAAAAAAAAAAAAAAAAAAAAAAAAAAAAAAAAAAAAAAAAAAAAAAAAAAAAAAAAAAAAAAAAAAAAAAAAAAAAAAAAAAAAAAAAAAAAAAAAAAAAAAAAAAAAAAAAAAAAAAAAAAAAAAAAAAAAAAAAAAAAAAAAAAAAAAAAAAAAAAAAAAAAAAAAAAAAAAAAAAAAAAAAAAAAAAAAAAAAAAAAAAAAAAAAAAAAAAAAAAAAAAAAAAAAAAAAAAAAAAAAAAAAAAAAAAAAAAAAAAAAAAAAAAAAAAAAAAAAAAAAAAAAAAAAAAAAAAAAAAAAAAAAAAAAAAAAAAAAAAAAAAAAAAAAAAAAAAAAAAAAAAAAAAAAAAAAAAAAAAAAAAAAAAAAAAAAAAAAAAAAAAAAAAAAAAAAAAAAAAAAAAAAAAAAAAAAAAAAAAAAAAAAAAAAAAAAAAAAAAAAAAAAAAAAAAAAAAAAAAAAAAAAAAAAAAAAAAAAAAAAAAAAAAAAAAAAAAAAAAAAAAAAAAAAAAAAAAAAAAAAAAAAAAAAAAAAAAAAAAAAAAAAAAAAAAAAAAAAAAAAAAAAAAAAAAAAAAAAAAAAAAAAAAAAAAAAAAAAAAAAAAAAAAAAAAAAAAAAAAAAAAAAAAAAAAAAAAAAAAAAAAAAAAAAAAAAAAAAAAAAAAAAAAAAAAAAAAAAAAAAAAAAAAAAAAAAAAAAAAAAAAAAAAAAAAAAAAAAAAAAAAAAAAAAAAAAAAAAAAAAAAAAAAAAAAAAAAAAAAAAAAAAAAAAAAAAAAAAAAAAAAAAAAAAAAAAAAAAAAAAAAAAAAAAAAAAAAAAAAAAAAAAAAAAAAAAAAAAAAAAAAAAAAAAAAAAAAAAAAAAAAAAAAAAAAAAAAAAAAAAAAAAAAAAAAAAAAAAAAAAAAAAAAAAAAAAAAAAAAAAAAAAAAAAAAAAAAAAAAAAAAAAAAAAAAAAAAAAAAAAAAAAAAAAAAAAAAAAAAAAAAAAAAAAAAAAAAAAAAAAAAAAAAAAAAAAAAAAAAAAAAAAAAAAAAAAAAAAAAAAAAAAAAAAAAAAAAAAAAAAAAAAAAAAAAAAAAAAAAAAAAAAAAAAAAAAAAAAAAAAAAAAAAAAAAAAAAAAAAAAAAAAAAAAAAAAAAAAAAAAAAAAAAAAAAAAAAAAAAAAAAAAAAAAAAAAAAAAAAAAAAAAAAAAAAAAAAAAAAAAAAAAAAAAAAAAAAAAAAAAAAAAAAAAAAAAAAAAAAAAAAAAAAAAAAAAAAAAAAAAAAAAAAAAAAAAAAAAAAAAAAAAAAAAAAAAAAAAAAAAAAAAAAAAAAAAAAAAAAAAAAAAAAAAAAAAAAAAAAAAAAAAAAAAAAAAAAAAAAAAAAAAAAAAAAAAAAAAAAAAAAAAAAAAAAAAAAAAAAAAAAAAAAAAAAAAAAAAAAAAAAAAAAAAAAAAAAAAAAAAAAAAAAAAAAAAAAAAAAAAAAAAAAAAAAAAAAAAAAAAAAAAAAAAAAAAAAAAAAAAAAAAAAAAAAAAAAAAAAAAAAAAAAAAAAAAAAAAAAAAAAAAAAAAAAAAAAAAAAAAAAAAAAAAAAAAAAAAAAAAAAAAAAAAAAAAAAAAAAAAAAAAAAAAAAAAAAAAAAAAAAAAAAAAAAAAAAAAAAAAAAAAAAAAAAAAAAAAAAAAAAAAAAAAAAAAAAAAAAAAAAAAAAAAAAAAAAAAAAAAAAAAAAAAAAAAAAAAAAAAAAAAAAAAAAAAAAAAAAAAAAAAAAAAAAAAAAAAAAAAAAAAAAAAAAAAAAAAAAAAAAAAAAAAAAAAAAAAAAAAAAAAAAAAAAAAAAAAAAAAAAAAAAAAAAAAAAAAAAAAAAAAAAAAAAAAAAAAAAAAAAAAAAAAAAAAAAAAAAAAAAAAAAAAAAAAAAAAAAAAAAAAAAAAAAAAAAAAAAAAAAAAAAAAAAAAAAAAAAAAAAAAAAAAAAAAAAAAAAAAAAAAAAAAAAAAAAAAAAAAAAAAAAAAAAAAAAAAAAAAAAAAAAAAAAAAAAAAAAAAAAAAAAAAAAAAAAAAAAAAAAAAAAAAAAAAAAAAAAAAAAAAAAAAAAAAAAAAAAAAAAAAAAAAAAAAAAAAAAAAAAAAAAAAAAAAAAAAAAAAAAAAAAAAAAAAAAAAAAAAAAAAAAAAAAAAAAAAAAAAAAAAAAAAAAAAAAAAAAAAAAAAAAAAAAAAAAAAAAAAAAAAAAAAAAAAAAAAAAAAAAAAAAAAAAAAAAAAAAAAAAAAAAAAAAAAAAAAAAAAAAAAAAAAAAAAAAAAAAAAAAAAAAAAAAAAAAAAAAAAAAAAAAAAAAAAAAAAAAAAAAAAAAAAAAAAAAAAAAAAAAAAAAAAAAAAAAAAAAAAAAAAAAAAAAAAAAAAAAAAAAAAAAAAAAAAAAAAAAAAAAAAAAAAAAAAAAAAAAAAAAAAAAAAAAAAAAAAAAAAAAAAAAAAAAAAAAAAAAAAAAAAAAAAAAAAAAAAAAAAAAAAAAAAAAAAAAAAAAAAAAAAAAAAAAAAAAAAAAAAAAAAAAAAAAAAAAAAAAAAAAAAAAAAAAAAAAAAAAAAAAAAAAAAAAAAAAAAAAAAAAAAAAAAAAAAAAAAAAAAAAAAAAAAAAAAAAAAAAAAAAAAAAAAAAAAAAAAAAAAAAAAAAAAAAAAAAAAAAAAAAAAAAAAAAAAAAAAAAAAAAAAAAAAAAAAAAAAAAAAAAAAAAAAAAAAAAAAAAAAAAAAAAAAAAAAAAAAAAAAAAAAAAAAAAAAAAAAAAAAAAAAAAAAAAAAAAAAAAAAAAAAAAAAAAAAAAAAAAAAAAAAAAAAAAAAAAAAAAAAAAAAAAAAAAAAAAAAAAAAAAAAAAAAAAAAAAAAAAAAAAAAAAAAAAAAAAAAAAAAAAAAAAAAAAAAAAAAAAAAAAAAAAAAAAAAAAAAAAAAAAAAAAAAAAAAAAAAAAAAAAAAAAAAAAAAAAAAAAAAAAAAAAAAAAAAAAAAAAAAAAAAAAAAAAAAAAAAAAAAAAAAAAAAAAAAAAAAAAAAAAAAAAAAAAAAAAAAAAAAAAAAAAAAAAAAAAAAAAAAAAAAAAAAAAAAAAAAAAAAAAAAAAAAAAAAAAAAAAAAAAAAAAAAAAAAAAAAAAAAAAAAAAAAAAAAAAAAAAAAAAAAAAAAAAAAAAAAAAAAAAAAAAAAAAAAAAAAAAAAAAAAAAAAAAAAAAAAAAAAAAAAAAAAAAAAAAAAAAAAAAAAAAAAAAAAAAAAAAAAAAAAAAAAAAAAAAAAAAAAAAAAAAAAAAAAAAAAAAAAAAAAAAAAAAAAAAAAAAAAAAAAAAAAAAAAAAAAAAAAAAAAAAAAAAAAAAAAAAAAAAAAAAAAAAAAAAAAAAAAAAAAAAAAAAAAAAAAAAAAAAAAAAAAAAAAAAAAAAAAAAAAAAAAAAAAAAAAAAAAAAAAAAAAAAAAAAAAAAAAAAAAAAAAAAAAAAAAAAAAAAAAAAAAAAAAAAAAAAAAAAAAAAAAAAAAAAAAAAAAAAAAAAAAAAAAAAAAAAAAAAAAAAAAAAAAAAAAAAAAAAAAAAAAAAAAAAAAAAAAAAAAAAAAAAAAAAAAAAAAAAAAAAAAAAAAAAAAAAAAAAAAAAAAAAAAAAAAAAAAAAAAAAAAAAAAAAAAAAAAAAAAAAAAAAAAAAAAAAAAAAAAAAAAAAAAAPZYQKpmEdyJVc5GXITaWQvZI4Kkgf2Qwq2Ke0Gmpvy8AHFSXxvHYIMgtEc91cLufj2rH3jwW70jeodr7ReUzHGEKow=</c2pa:manifest></metadata>
<defs><linearGradient id="bg" x1="0" y1="0" x2="1" y2="1"><stop offset="0" stop-color="#17150F"/><stop offset="1" stop-color="#2B2414"/></linearGradient>
<linearGradient id="col" x1="0" y1="0" x2="0" y2="1"><stop offset="0" stop-color="#C9A227" stop-opacity="0.28"/><stop offset="1" stop-color="#C9A227" stop-opacity="0.08"/></linearGradient>
<style>.k{font-family:'Pretendard','Apple SD Gothic Neo','Malgun Gothic','Noto Sans KR','Noto Sans CJK KR',sans-serif}.f{font-family:Georgia,'Times New Roman',serif}</style></defs>
<rect width="1200" height="750" rx="24" fill="url(#bg)"/>
<rect x="1" y="1" width="1198" height="748" rx="23" fill="none" stroke="#C9A227" stroke-opacity="0.35"/>
<text x="56" y="74" class="k" font-size="15" letter-spacing="3" fill="#C9A227" font-weight="700">비교 · 무엇이 다른가</text>
<text x="56" y="116" class="k" font-size="32" font-weight="800" fill="#FBFAF7">번호를 「파는」 곳과, <tspan fill="#F3DA86">전부 계산해 보여 주는</tspan> 도구</text>
<rect x="488" y="144" width="144" height="534" rx="16" fill="url(#col)" stroke="#C9A227" stroke-opacity="0.6"/>
<text x="560" y="180" class="k" font-size="19" font-weight="800" fill="#F3DA86" text-anchor="middle">로또 모든것</text>
<text x="720" y="180" class="k" font-size="15" font-weight="700" fill="#CFC8B6" text-anchor="middle">유료 번호 추천</text>
<text x="880" y="180" class="k" font-size="15" font-weight="700" fill="#CFC8B6" text-anchor="middle">광고형 무료 앱</text>
<text x="1040" y="180" class="k" font-size="15" font-weight="700" fill="#CFC8B6" text-anchor="middle">엑셀 · 수작업</text>
<line x1="56" y1="191.0" x2="1144" y2="191.0" stroke="#FBFAF7" stroke-opacity="0.07"/>
<text x="56" y="216" class="k" font-size="17" fill="#FBFAF7">가격</text>
<text x="560" y="215" class="k" font-size="15" font-weight="700" fill="#F3DA86" text-anchor="middle">무료</text>
<text x="720" y="215" class="k" font-size="15" font-weight="700" fill="#CFC8B6" text-anchor="middle">월 구독</text>
<text x="880" y="215" class="k" font-size="15" font-weight="700" fill="#CFC8B6" text-anchor="middle">무료 (광고)</text>
<text x="1040" y="215" class="k" font-size="15" font-weight="700" fill="#CFC8B6" text-anchor="middle">무료</text>
<line x1="56" y1="237.0" x2="1144" y2="237.0" stroke="#FBFAF7" stroke-opacity="0.07"/>
<text x="56" y="262" class="k" font-size="17" fill="#FBFAF7">8,145,060개 전체 조합 전수 계산</text>
<circle cx="560" cy="256" r="13" fill="#C9A227"/><path d="M554 256 l4.5 4.5 l8 -9" fill="none" stroke="#17150F" stroke-width="3" stroke-linecap="round" stroke-linejoin="round"/>
<circle cx="720" cy="256" r="13" fill="none" stroke="#6B6557" stroke-width="1.5"/><path d="M715 251 l10 10 M725 251 l-10 10" stroke="#6B6557" stroke-width="2" stroke-linecap="round"/>
<circle cx="880" cy="256" r="13" fill="none" stroke="#6B6557" stroke-width="1.5"/><path d="M875 251 l10 10 M885 251 l-10 10" stroke="#6B6557" stroke-width="2" stroke-linecap="round"/>
<circle cx="1040" cy="256" r="13" fill="none" stroke="#6B6557" stroke-width="1.5"/><path d="M1035 251 l10 10 M1045 251 l-10 10" stroke="#6B6557" stroke-width="2" stroke-linecap="round"/>
<line x1="56" y1="283.0" x2="1144" y2="283.0" stroke="#FBFAF7" stroke-opacity="0.07"/>
<text x="56" y="308" class="k" font-size="17" fill="#FBFAF7">15가지 조건 동시 필터 · 즉시 결과</text>
<circle cx="560" cy="302" r="13" fill="#C9A227"/><path d="M554 302 l4.5 4.5 l8 -9" fill="none" stroke="#17150F" stroke-width="3" stroke-linecap="round" stroke-linejoin="round"/>
<circle cx="720" cy="302" r="13" fill="none" stroke="#8E887A" stroke-width="1.5"/><path d="M720 289 a13 13 0 0 1 0 26 z" fill="#8E887A"/>
<circle cx="880" cy="302" r="13" fill="none" stroke="#8E887A" stroke-width="1.5"/><path d="M880 289 a13 13 0 0 1 0 26 z" fill="#8E887A"/>
<circle cx="1040" cy="302" r="13" fill="none" stroke="#6B6557" stroke-width="1.5"/><path d="M1035 297 l10 10 M1045 297 l-10 10" stroke="#6B6557" stroke-width="2" stroke-linecap="round"/>
<line x1="56" y1="329.0" x2="1144" y2="329.0" stroke="#FBFAF7" stroke-opacity="0.07"/>
<text x="56" y="354" class="k" font-size="17" fill="#FBFAF7">당첨금 「분배」 모델 (나눠 가질 사람 수)</text>
<circle cx="560" cy="348" r="13" fill="#C9A227"/><path d="M554 348 l4.5 4.5 l8 -9" fill="none" stroke="#17150F" stroke-width="3" stroke-linecap="round" stroke-linejoin="round"/>
<circle cx="720" cy="348" r="13" fill="none" stroke="#6B6557" stroke-width="1.5"/><path d="M715 343 l10 10 M725 343 l-10 10" stroke="#6B6557" stroke-width="2" stroke-linecap="round"/>
<circle cx="880" cy="348" r="13" fill="none" stroke="#6B6557" stroke-width="1.5"/><path d="M875 343 l10 10 M885 343 l-10 10" stroke="#6B6557" stroke-width="2" stroke-linecap="round"/>
<circle cx="1040" cy="348" r="13" fill="none" stroke="#6B6557" stroke-width="1.5"/><path d="M1035 343 l10 10 M1045 343 l-10 10" stroke="#6B6557" stroke-width="2" stroke-linecap="round"/>
<line x1="56" y1="375.0" x2="1144" y2="375.0" stroke="#FBFAF7" stroke-opacity="0.07"/>
<text x="56" y="400" class="k" font-size="17" fill="#FBFAF7">「당첨 보장」 같은 과장 없음</text>
<circle cx="560" cy="394" r="13" fill="#C9A227"/><path d="M554 394 l4.5 4.5 l8 -9" fill="none" stroke="#17150F" stroke-width="3" stroke-linecap="round" stroke-linejoin="round"/>
<circle cx="720" cy="394" r="13" fill="none" stroke="#6B6557" stroke-width="1.5"/><path d="M715 389 l10 10 M725 389 l-10 10" stroke="#6B6557" stroke-width="2" stroke-linecap="round"/>
<circle cx="880" cy="394" r="13" fill="none" stroke="#8E887A" stroke-width="1.5"/><path d="M880 381 a13 13 0 0 1 0 26 z" fill="#8E887A"/>
<circle cx="1040" cy="394" r="13" fill="#C9A227"/><path d="M1034 394 l4.5 4.5 l8 -9" fill="none" stroke="#17150F" stroke-width="3" stroke-linecap="round" stroke-linejoin="round"/>
<line x1="56" y1="421.0" x2="1144" y2="421.0" stroke="#FBFAF7" stroke-opacity="0.07"/>
<text x="56" y="446" class="k" font-size="17" fill="#FBFAF7">연금복권 720+ 함께 분석</text>
<circle cx="560" cy="440" r="13" fill="#C9A227"/><path d="M554 440 l4.5 4.5 l8 -9" fill="none" stroke="#17150F" stroke-width="3" stroke-linecap="round" stroke-linejoin="round"/>
<circle cx="720" cy="440" r="13" fill="none" stroke="#8E887A" stroke-width="1.5"/><path d="M720 427 a13 13 0 0 1 0 26 z" fill="#8E887A"/>
<circle cx="880" cy="440" r="13" fill="none" stroke="#8E887A" stroke-width="1.5"/><path d="M880 427 a13 13 0 0 1 0 26 z" fill="#8E887A"/>
<circle cx="1040" cy="440" r="13" fill="none" stroke="#6B6557" stroke-width="1.5"/><path d="M1035 435 l10 10 M1045 435 l-10 10" stroke="#6B6557" stroke-width="2" stroke-linecap="round"/>
<line x1="56" y1="467.0" x2="1144" y2="467.0" stroke="#FBFAF7" stroke-opacity="0.07"/>
<text x="56" y="492" class="k" font-size="17" fill="#FBFAF7">추첨기 · 공 나온 순서 데이터</text>
<circle cx="560" cy="486" r="13" fill="#C9A227"/><path d="M554 486 l4.5 4.5 l8 -9" fill="none" stroke="#17150F" stroke-width="3" stroke-linecap="round" stroke-linejoin="round"/>
<circle cx="720" cy="486" r="13" fill="none" stroke="#8E887A" stroke-width="1.5"/><path d="M720 473 a13 13 0 0 1 0 26 z" fill="#8E887A"/>
<circle cx="880" cy="486" r="13" fill="none" stroke="#6B6557" stroke-width="1.5"/><path d="M875 481 l10 10 M885 481 l-10 10" stroke="#6B6557" stroke-width="2" stroke-linecap="round"/>
<circle cx="1040" cy="486" r="13" fill="none" stroke="#6B6557" stroke-width="1.5"/><path d="M1035 481 l10 10 M1045 481 l-10 10" stroke="#6B6557" stroke-width="2" stroke-linecap="round"/>
<line x1="56" y1="513.0" x2="1144" y2="513.0" stroke="#FBFAF7" stroke-opacity="0.07"/>
<text x="56" y="538" class="k" font-size="17" fill="#FBFAF7">분석은 인터넷 없이 내 PC에서</text>
<circle cx="560" cy="532" r="13" fill="#C9A227"/><path d="M554 532 l4.5 4.5 l8 -9" fill="none" stroke="#17150F" stroke-width="3" stroke-linecap="round" stroke-linejoin="round"/>
<circle cx="720" cy="532" r="13" fill="none" stroke="#6B6557" stroke-width="1.5"/><path d="M715 527 l10 10 M725 527 l-10 10" stroke="#6B6557" stroke-width="2" stroke-linecap="round"/>
<circle cx="880" cy="532" r="13" fill="none" stroke="#6B6557" stroke-width="1.5"/><path d="M875 527 l10 10 M885 527 l-10 10" stroke="#6B6557" stroke-width="2" stroke-linecap="round"/>
<circle cx="1040" cy="532" r="13" fill="#C9A227"/><path d="M1034 532 l4.5 4.5 l8 -9" fill="none" stroke="#17150F" stroke-width="3" stroke-linecap="round" stroke-linejoin="round"/>
<line x1="56" y1="559.0" x2="1144" y2="559.0" stroke="#FBFAF7" stroke-opacity="0.07"/>
<text x="56" y="584" class="k" font-size="17" fill="#FBFAF7">AI(Claude) 연동 도구 18개 (MCP)</text>
<circle cx="560" cy="578" r="13" fill="#C9A227"/><path d="M554 578 l4.5 4.5 l8 -9" fill="none" stroke="#17150F" stroke-width="3" stroke-linecap="round" stroke-linejoin="round"/>
<circle cx="720" cy="578" r="13" fill="none" stroke="#6B6557" stroke-width="1.5"/><path d="M715 573 l10 10 M725 573 l-10 10" stroke="#6B6557" stroke-width="2" stroke-linecap="round"/>
<circle cx="880" cy="578" r="13" fill="none" stroke="#6B6557" stroke-width="1.5"/><path d="M875 573 l10 10 M885 573 l-10 10" stroke="#6B6557" stroke-width="2" stroke-linecap="round"/>
<circle cx="1040" cy="578" r="13" fill="none" stroke="#6B6557" stroke-width="1.5"/><path d="M1035 573 l10 10 M1045 573 l-10 10" stroke="#6B6557" stroke-width="2" stroke-linecap="round"/>
<line x1="56" y1="605.0" x2="1144" y2="605.0" stroke="#FBFAF7" stroke-opacity="0.07"/>
<text x="56" y="630" class="k" font-size="17" fill="#FBFAF7">소스 공개 · 자동 테스트 341개</text>
<circle cx="560" cy="624" r="13" fill="#C9A227"/><path d="M554 624 l4.5 4.5 l8 -9" fill="none" stroke="#17150F" stroke-width="3" stroke-linecap="round" stroke-linejoin="round"/>
<circle cx="720" cy="624" r="13" fill="none" stroke="#6B6557" stroke-width="1.5"/><path d="M715 619 l10 10 M725 619 l-10 10" stroke="#6B6557" stroke-width="2" stroke-linecap="round"/>
<circle cx="880" cy="624" r="13" fill="none" stroke="#6B6557" stroke-width="1.5"/><path d="M875 619 l10 10 M885 619 l-10 10" stroke="#6B6557" stroke-width="2" stroke-linecap="round"/>
<circle cx="1040" cy="624" r="13" fill="none" stroke="#6B6557" stroke-width="1.5"/><path d="M1035 619 l10 10 M1045 619 l-10 10" stroke="#6B6557" stroke-width="2" stroke-linecap="round"/>
<g class="k" font-size="13" fill="#8E887A"><circle cx="70" cy="707" r="13" fill="#C9A227"/><path d="M64 707 l4.5 4.5 l8 -9" fill="none" stroke="#17150F" stroke-width="3" stroke-linecap="round" stroke-linejoin="round"/><text x="92" y="712">지원</text><circle cx="160" cy="707" r="13" fill="none" stroke="#8E887A" stroke-width="1.5"/><path d="M160 694 a13 13 0 0 1 0 26 z" fill="#8E887A"/><text x="182" y="712">일부 · 서비스마다 다름</text><circle cx="360" cy="707" r="13" fill="none" stroke="#6B6557" stroke-width="1.5"/><path d="M355 702 l10 10 M365 702 l-10 10" stroke="#6B6557" stroke-width="2" stroke-linecap="round"/><text x="382" y="712">대체로 없음</text><text x="1144" y="712" text-anchor="end">비교 대상은 특정 서비스가 아닌 일반적인 유형입니다.</text></g>
</svg>